<?xml version="1.0" encoding="UTF-8" standalone="no"?>
<!DOCTYPE svg PUBLIC "-//W3C//DTD SVG 1.1//EN"
 "http://www.w3.org/Graphics/SVG/1.1/DTD/svg11.dtd">
<!-- Generated by graphviz version 2.48.0 (20210717.1556)
 -->
<!-- Title: Estado Pages: 1 -->
<svg width="616pt" height="271pt"
 viewBox="0.00 0.00 616.00 271.00" xmlns="http://www.w3.org/2000/svg" xmlns:xlink="http://www.w3.org/1999/xlink">
<g id="graph0" class="graph" transform="scale(1 1) rotate(0) translate(4 267)">
<title>Estado</title>
<polygon fill="white" stroke="transparent" points="-4,4 -4,-267 612,-267 612,4 -4,4"/>
<text text-anchor="middle" x="304" y="-7.8" font-family="Times New Roman,serif" font-size="14.00">Estado del punto y escritorios activos del punto.</text>
<!-- R1 -->
<g id="node1" class="node">
<title>R1</title>
<path fill="salmon" stroke="#cd1076" d="M12,-51C12,-51 158,-51 158,-51 164,-51 170,-57 170,-63 170,-63 170,-137 170,-137 170,-143 164,-149 158,-149 158,-149 12,-149 12,-149 6,-149 0,-143 0,-137 0,-137 0,-63 0,-63 0,-57 6,-51 12,-51"/>
<text text-anchor="middle" x="85" y="-133.8" font-family="Times New Roman,serif" font-size="14.00">Punto de atencion: punto11</text>
<text text-anchor="middle" x="85" y="-118.8" font-family="Times New Roman,serif" font-size="14.00">Promedio espera: 7.0 min</text>
<text text-anchor="middle" x="85" y="-103.8" font-family="Times New Roman,serif" font-size="14.00">Máximo espera: 7.0 min</text>
<text text-anchor="middle" x="85" y="-88.8" font-family="Times New Roman,serif" font-size="14.00">Mínimo espera: 7.0 min</text>
<text text-anchor="middle" x="85" y="-73.8" font-family="Times New Roman,serif" font-size="14.00">Escritorios activos: 2</text>
<text text-anchor="middle" x="85" y="-58.8" font-family="Times New Roman,serif" font-size="14.00">Escritorios inactivos: 2</text>
</g>
<!-- D0 -->
<g id="node3" class="node">
<title>D0</title>
<polygon fill="salmon" stroke="#cd1076" points="421,-177 206,-177 206,-109 421,-109 421,-177"/>
<text text-anchor="middle" x="313.5" y="-161.8" font-family="Times New Roman,serif" font-size="14.00">Escritorio: esc11&#45;2</text>
<text text-anchor="middle" x="313.5" y="-146.8" font-family="Times New Roman,serif" font-size="14.00">Identificación: Ident Escritorio 11&#45;2</text>
<text text-anchor="middle" x="313.5" y="-131.8" font-family="Times New Roman,serif" font-size="14.00">Encargado: EP1L1&#45;2</text>
<text text-anchor="middle" x="313.5" y="-116.8" font-family="Times New Roman,serif" font-size="14.00">Atendidos: 0</text>
</g>
<!-- R1&#45;&gt;D0 -->
<g id="edge1" class="edge">
<title>R1&#45;&gt;D0</title>
<path fill="none" stroke="black" d="M170.02,-115.95C178.53,-117.57 187.27,-119.23 196.04,-120.89"/>
<polygon fill="black" stroke="black" points="195.46,-124.34 205.94,-122.77 196.77,-117.47 195.46,-124.34"/>
</g>
<!-- D1 -->
<g id="node4" class="node">
<title>D1</title>
<polygon fill="salmon" stroke="#cd1076" points="421,-91 206,-91 206,-23 421,-23 421,-91"/>
<text text-anchor="middle" x="313.5" y="-75.8" font-family="Times New Roman,serif" font-size="14.00">Escritorio: esc11&#45;4</text>
<text text-anchor="middle" x="313.5" y="-60.8" font-family="Times New Roman,serif" font-size="14.00">Identificación: Ident Escritorio 11&#45;4</text>
<text text-anchor="middle" x="313.5" y="-45.8" font-family="Times New Roman,serif" font-size="14.00">Encargado: EP1L1&#45;4</text>
<text text-anchor="middle" x="313.5" y="-30.8" font-family="Times New Roman,serif" font-size="14.00">Atendidos: 0</text>
</g>
<!-- R1&#45;&gt;D1 -->
<g id="edge2" class="edge">
<title>R1&#45;&gt;D1</title>
<path fill="none" stroke="black" d="M170.02,-84.05C178.53,-82.43 187.27,-80.77 196.04,-79.11"/>
<polygon fill="black" stroke="black" points="196.77,-82.53 205.94,-77.23 195.46,-75.66 196.77,-82.53"/>
</g>
<!-- R2 -->
<g id="node2" class="node">
<title>R2</title>
<path fill="salmon" stroke="#cd1076" d="M37,-211C37,-211 133,-211 133,-211 139,-211 145,-217 145,-223 145,-223 145,-235 145,-235 145,-241 139,-247 133,-247 133,-247 37,-247 37,-247 31,-247 25,-241 25,-235 25,-235 25,-223 25,-223 25,-217 31,-211 37,-211"/>
<text text-anchor="middle" x="85" y="-225.3" font-family="Times New Roman,serif" font-size="14.00">Clientes en espera:</text>
</g>
<!-- C0 -->
<g id="node5" class="node">
<title>C0</title>
<polygon fill="salmon" stroke="#cd1076" points="389,-263 238,-263 238,-195 389,-195 389,-263"/>
<text text-anchor="middle" x="313.5" y="-247.8" font-family="Times New Roman,serif" font-size="14.00">Josué</text>
<text text-anchor="middle" x="313.5" y="-232.8" font-family="Times New Roman,serif" font-size="14.00">DPI: 10101010</text>
<text text-anchor="middle" x="313.5" y="-217.8" font-family="Times New Roman,serif" font-size="14.00">Atención propia: 14 min</text>
<text text-anchor="middle" x="313.5" y="-202.8" font-family="Times New Roman,serif" font-size="14.00">Espera media: 0.0 min</text>
</g>
<!-- R2&#45;&gt;C0 -->
<g id="edge3" class="edge">
<title>R2&#45;&gt;C0</title>
<path fill="none" stroke="black" d="M145.21,-229C170.43,-229 200.31,-229 227.8,-229"/>
<polygon fill="black" stroke="black" points="227.8,-232.5 237.8,-229 227.8,-225.5 227.8,-232.5"/>
</g>
<!-- C1 -->
<g id="node6" class="node">
<title>C1</title>
<polygon fill="salmon" stroke="#cd1076" points="608,-263 457,-263 457,-195 608,-195 608,-263"/>
<text text-anchor="middle" x="532.5" y="-247.8" font-family="Times New Roman,serif" font-size="14.00">Antonio</text>
<text text-anchor="middle" x="532.5" y="-232.8" font-family="Times New Roman,serif" font-size="14.00">DPI: 30303030</text>
<text text-anchor="middle" x="532.5" y="-217.8" font-family="Times New Roman,serif" font-size="14.00">Atención propia: 15 min</text>
<text text-anchor="middle" x="532.5" y="-202.8" font-family="Times New Roman,serif" font-size="14.00">Espera media: 7.0 min</text>
</g>
<!-- C0&#45;&gt;C1 -->
<g id="edge4" class="edge">
<title>C0&#45;&gt;C1</title>
<path fill="none" stroke="black" d="M389.18,-229C407.68,-229 427.63,-229 446.58,-229"/>
<polygon fill="black" stroke="black" points="446.68,-232.5 456.68,-229 446.68,-225.5 446.68,-232.5"/>
</g>
</g>
</svg>
