<?xml version="1.0" encoding="UTF-8" standalone="no"?>
<!DOCTYPE svg PUBLIC "-//W3C//DTD SVG 1.1//EN"
 "http://www.w3.org/Graphics/SVG/1.1/DTD/svg11.dtd">
<!-- Generated by graphviz version 2.48.0 (20210717.1556)
 -->
<!-- Title: Estado Pages: 1 -->
<svg width="429pt" height="592pt"
 viewBox="0.00 0.00 429.00 592.00" xmlns="http://www.w3.org/2000/svg" xmlns:xlink="http://www.w3.org/1999/xlink">
<g id="graph0" class="graph" transform="scale(1 1) rotate(0) translate(4 588)">
<title>Estado</title>
<polygon fill="white" stroke="transparent" points="-4,4 -4,-588 425,-588 425,4 -4,4"/>
<text text-anchor="middle" x="210.5" y="-7.8" font-family="Times New Roman,serif" font-size="14.00">Estado del punto y escritorios activos del punto.</text>
<!-- R1 -->
<g id="node1" class="node">
<title>R1</title>
<path fill="salmon" stroke="#cd1076" d="M12,-258.5C12,-258.5 158,-258.5 158,-258.5 164,-258.5 170,-264.5 170,-270.5 170,-270.5 170,-282.5 170,-282.5 170,-288.5 164,-294.5 158,-294.5 158,-294.5 12,-294.5 12,-294.5 6,-294.5 0,-288.5 0,-282.5 0,-282.5 0,-270.5 0,-270.5 0,-264.5 6,-258.5 12,-258.5"/>
<text text-anchor="middle" x="85" y="-272.8" font-family="Times New Roman,serif" font-size="14.00">Punto de atencion: punto11</text>
</g>
<!-- D0 -->
<g id="node3" class="node">
<title>D0</title>
<polygon fill="salmon" stroke="#cd1076" points="421,-529 206,-529 206,-416 421,-416 421,-529"/>
<text text-anchor="middle" x="313.5" y="-513.8" font-family="Times New Roman,serif" font-size="14.00">Escritorio: esc11&#45;1</text>
<text text-anchor="middle" x="313.5" y="-498.8" font-family="Times New Roman,serif" font-size="14.00">Identificación: Ident Escritorio 11&#45;1</text>
<text text-anchor="middle" x="313.5" y="-483.8" font-family="Times New Roman,serif" font-size="14.00">Encargado: EP1L1&#45;1</text>
<text text-anchor="middle" x="313.5" y="-468.8" font-family="Times New Roman,serif" font-size="14.00">Tiempo de atención mínimo: 0</text>
<text text-anchor="middle" x="313.5" y="-453.8" font-family="Times New Roman,serif" font-size="14.00">Tiempo de atención máximo: 6</text>
<text text-anchor="middle" x="313.5" y="-438.8" font-family="Times New Roman,serif" font-size="14.00">Atendidos: 1</text>
<text text-anchor="middle" x="313.5" y="-423.8" font-family="Times New Roman,serif" font-size="14.00">Tiempo de atención medio: 6.0</text>
</g>
<!-- R1&#45;&gt;D0 -->
<g id="edge1" class="edge">
<title>R1&#45;&gt;D0</title>
<path fill="none" stroke="black" d="M100.18,-294.76C121.36,-321.33 163.36,-371.3 206,-406.5 207.33,-407.59 208.67,-408.68 210.04,-409.77"/>
<polygon fill="black" stroke="black" points="207.96,-412.59 218.01,-415.92 212.23,-407.04 207.96,-412.59"/>
</g>
<!-- D1 -->
<g id="node4" class="node">
<title>D1</title>
<polygon fill="salmon" stroke="#cd1076" points="421,-398 206,-398 206,-285 421,-285 421,-398"/>
<text text-anchor="middle" x="313.5" y="-382.8" font-family="Times New Roman,serif" font-size="14.00">Escritorio: esc11&#45;2</text>
<text text-anchor="middle" x="313.5" y="-367.8" font-family="Times New Roman,serif" font-size="14.00">Identificación: Ident Escritorio 11&#45;2</text>
<text text-anchor="middle" x="313.5" y="-352.8" font-family="Times New Roman,serif" font-size="14.00">Encargado: EP1L1&#45;2</text>
<text text-anchor="middle" x="313.5" y="-337.8" font-family="Times New Roman,serif" font-size="14.00">Tiempo de atención mínimo: 0</text>
<text text-anchor="middle" x="313.5" y="-322.8" font-family="Times New Roman,serif" font-size="14.00">Tiempo de atención máximo: 8</text>
<text text-anchor="middle" x="313.5" y="-307.8" font-family="Times New Roman,serif" font-size="14.00">Atendidos: 1</text>
<text text-anchor="middle" x="313.5" y="-292.8" font-family="Times New Roman,serif" font-size="14.00">Tiempo de atención medio: 8.0</text>
</g>
<!-- R1&#45;&gt;D1 -->
<g id="edge2" class="edge">
<title>R1&#45;&gt;D1</title>
<path fill="none" stroke="black" d="M148.79,-294.52C163.43,-298.72 179.48,-303.33 195.63,-307.96"/>
<polygon fill="black" stroke="black" points="195.1,-311.45 205.68,-310.85 197.04,-304.72 195.1,-311.45"/>
</g>
<!-- D2 -->
<g id="node5" class="node">
<title>D2</title>
<polygon fill="salmon" stroke="#cd1076" points="421,-267 206,-267 206,-154 421,-154 421,-267"/>
<text text-anchor="middle" x="313.5" y="-251.8" font-family="Times New Roman,serif" font-size="14.00">Escritorio: esc11&#45;3</text>
<text text-anchor="middle" x="313.5" y="-236.8" font-family="Times New Roman,serif" font-size="14.00">Identificación: Ident Escritorio 11&#45;3</text>
<text text-anchor="middle" x="313.5" y="-221.8" font-family="Times New Roman,serif" font-size="14.00">Encargado: EP1L1&#45;3</text>
<text text-anchor="middle" x="313.5" y="-206.8" font-family="Times New Roman,serif" font-size="14.00">Tiempo de atención mínimo: 0</text>
<text text-anchor="middle" x="313.5" y="-191.8" font-family="Times New Roman,serif" font-size="14.00">Tiempo de atención máximo: 0</text>
<text text-anchor="middle" x="313.5" y="-176.8" font-family="Times New Roman,serif" font-size="14.00">Atendidos: 0</text>
<text text-anchor="middle" x="313.5" y="-161.8" font-family="Times New Roman,serif" font-size="14.00">Tiempo de atención medio: 0</text>
</g>
<!-- R1&#45;&gt;D2 -->
<g id="edge3" class="edge">
<title>R1&#45;&gt;D2</title>
<path fill="none" stroke="black" d="M147.89,-258.47C162.89,-254.09 179.42,-249.28 196.04,-244.44"/>
<polygon fill="black" stroke="black" points="197.2,-247.74 205.82,-241.59 195.24,-241.02 197.2,-247.74"/>
</g>
<!-- D3 -->
<g id="node6" class="node">
<title>D3</title>
<polygon fill="salmon" stroke="#cd1076" points="421,-136 206,-136 206,-23 421,-23 421,-136"/>
<text text-anchor="middle" x="313.5" y="-120.8" font-family="Times New Roman,serif" font-size="14.00">Escritorio: esc11&#45;4</text>
<text text-anchor="middle" x="313.5" y="-105.8" font-family="Times New Roman,serif" font-size="14.00">Identificación: Ident Escritorio 11&#45;4</text>
<text text-anchor="middle" x="313.5" y="-90.8" font-family="Times New Roman,serif" font-size="14.00">Encargado: EP1L1&#45;4</text>
<text text-anchor="middle" x="313.5" y="-75.8" font-family="Times New Roman,serif" font-size="14.00">Tiempo de atención mínimo: 0</text>
<text text-anchor="middle" x="313.5" y="-60.8" font-family="Times New Roman,serif" font-size="14.00">Tiempo de atención máximo: 0</text>
<text text-anchor="middle" x="313.5" y="-45.8" font-family="Times New Roman,serif" font-size="14.00">Atendidos: 0</text>
<text text-anchor="middle" x="313.5" y="-30.8" font-family="Times New Roman,serif" font-size="14.00">Tiempo de atención medio: 0</text>
</g>
<!-- R1&#45;&gt;D3 -->
<g id="edge4" class="edge">
<title>R1&#45;&gt;D3</title>
<path fill="none" stroke="black" d="M99.74,-258.34C120.69,-231.41 162.78,-180.2 206,-144.5 206.86,-143.79 207.72,-143.09 208.59,-142.39"/>
<polygon fill="black" stroke="black" points="210.88,-145.04 216.63,-136.14 206.59,-139.51 210.88,-145.04"/>
</g>
<!-- R2 -->
<g id="node2" class="node">
<title>R2</title>
<path fill="salmon" stroke="#cd1076" d="M37,-547.5C37,-547.5 133,-547.5 133,-547.5 139,-547.5 145,-553.5 145,-559.5 145,-559.5 145,-571.5 145,-571.5 145,-577.5 139,-583.5 133,-583.5 133,-583.5 37,-583.5 37,-583.5 31,-583.5 25,-577.5 25,-571.5 25,-571.5 25,-559.5 25,-559.5 25,-553.5 31,-547.5 37,-547.5"/>
<text text-anchor="middle" x="85" y="-561.8" font-family="Times New Roman,serif" font-size="14.00">Clientes en espera:</text>
</g>
<!-- C0 -->
<g id="node7" class="node">
<title>C0</title>
<polygon fill="salmon" stroke="#cd1076" points="399.5,-583.5 227.5,-583.5 227.5,-547.5 399.5,-547.5 399.5,-583.5"/>
<text text-anchor="middle" x="313.5" y="-561.8" font-family="Times New Roman,serif" font-size="14.00">Sin clientes en la cola actual</text>
</g>
<!-- R2&#45;&gt;C0 -->
<g id="edge5" class="edge">
<title>R2&#45;&gt;C0</title>
<path fill="none" stroke="black" d="M145.21,-565.5C167.22,-565.5 192.78,-565.5 217.19,-565.5"/>
<polygon fill="black" stroke="black" points="217.21,-569 227.21,-565.5 217.21,-562 217.21,-569"/>
</g>
</g>
</svg>
