<?xml version="1.0" encoding="UTF-8" standalone="no"?>
<!DOCTYPE svg PUBLIC "-//W3C//DTD SVG 1.1//EN"
 "http://www.w3.org/Graphics/SVG/1.1/DTD/svg11.dtd">
<!-- Generated by graphviz version 2.48.0 (20210717.1556)
 -->
<!-- Title: Estado Pages: 1 -->
<svg width="808pt" height="357pt"
 viewBox="0.00 0.00 808.00 357.00" xmlns="http://www.w3.org/2000/svg" xmlns:xlink="http://www.w3.org/1999/xlink">
<g id="graph0" class="graph" transform="scale(1 1) rotate(0) translate(4 353)">
<title>Estado</title>
<polygon fill="white" stroke="transparent" points="-4,4 -4,-353 804,-353 804,4 -4,4"/>
<text text-anchor="middle" x="400" y="-7.8" font-family="Times New Roman,serif" font-size="14.00">Estado del punto y escritorios activos del punto.</text>
<!-- R1 -->
<g id="node1" class="node">
<title>R1</title>
<path fill="salmon" stroke="#cd1076" d="M12,-94C12,-94 161,-94 161,-94 167,-94 173,-100 173,-106 173,-106 173,-180 173,-180 173,-186 167,-192 161,-192 161,-192 12,-192 12,-192 6,-192 0,-186 0,-180 0,-180 0,-106 0,-106 0,-100 6,-94 12,-94"/>
<text text-anchor="middle" x="86.5" y="-176.8" font-family="Times New Roman,serif" font-size="14.00">Punto de atencion: punto11</text>
<text text-anchor="middle" x="86.5" y="-161.8" font-family="Times New Roman,serif" font-size="14.00">Promedio espera: 11.67 min</text>
<text text-anchor="middle" x="86.5" y="-146.8" font-family="Times New Roman,serif" font-size="14.00">Máximo espera: 11.67 min</text>
<text text-anchor="middle" x="86.5" y="-131.8" font-family="Times New Roman,serif" font-size="14.00">Mínimo espera: 7.0 min</text>
<text text-anchor="middle" x="86.5" y="-116.8" font-family="Times New Roman,serif" font-size="14.00">Escritorios activos: 3</text>
<text text-anchor="middle" x="86.5" y="-101.8" font-family="Times New Roman,serif" font-size="14.00">Escritorios inactivos: 1</text>
</g>
<!-- D0 -->
<g id="node3" class="node">
<title>D0</title>
<polygon fill="salmon" stroke="#cd1076" points="424,-263 209,-263 209,-195 424,-195 424,-263"/>
<text text-anchor="middle" x="316.5" y="-247.8" font-family="Times New Roman,serif" font-size="14.00">Escritorio: esc11&#45;2</text>
<text text-anchor="middle" x="316.5" y="-232.8" font-family="Times New Roman,serif" font-size="14.00">Identificación: Ident Escritorio 11&#45;2</text>
<text text-anchor="middle" x="316.5" y="-217.8" font-family="Times New Roman,serif" font-size="14.00">Encargado: EP1L1&#45;2</text>
<text text-anchor="middle" x="316.5" y="-202.8" font-family="Times New Roman,serif" font-size="14.00">Atendidos: 0</text>
</g>
<!-- R1&#45;&gt;D0 -->
<g id="edge1" class="edge">
<title>R1&#45;&gt;D0</title>
<path fill="none" stroke="black" d="M173.05,-175.27C186.91,-180.5 201.37,-185.95 215.53,-191.29"/>
<polygon fill="black" stroke="black" points="214.69,-194.72 225.28,-194.97 217.16,-188.17 214.69,-194.72"/>
</g>
<!-- D1 -->
<g id="node4" class="node">
<title>D1</title>
<polygon fill="salmon" stroke="#cd1076" points="424,-177 209,-177 209,-109 424,-109 424,-177"/>
<text text-anchor="middle" x="316.5" y="-161.8" font-family="Times New Roman,serif" font-size="14.00">Escritorio: esc11&#45;3</text>
<text text-anchor="middle" x="316.5" y="-146.8" font-family="Times New Roman,serif" font-size="14.00">Identificación: Ident Escritorio 11&#45;3</text>
<text text-anchor="middle" x="316.5" y="-131.8" font-family="Times New Roman,serif" font-size="14.00">Encargado: EP1L1&#45;3</text>
<text text-anchor="middle" x="316.5" y="-116.8" font-family="Times New Roman,serif" font-size="14.00">Atendidos: 0</text>
</g>
<!-- R1&#45;&gt;D1 -->
<g id="edge2" class="edge">
<title>R1&#45;&gt;D1</title>
<path fill="none" stroke="black" d="M173.05,-143C181.4,-143 189.98,-143 198.57,-143"/>
<polygon fill="black" stroke="black" points="198.66,-146.5 208.66,-143 198.66,-139.5 198.66,-146.5"/>
</g>
<!-- D2 -->
<g id="node5" class="node">
<title>D2</title>
<polygon fill="salmon" stroke="#cd1076" points="424,-91 209,-91 209,-23 424,-23 424,-91"/>
<text text-anchor="middle" x="316.5" y="-75.8" font-family="Times New Roman,serif" font-size="14.00">Escritorio: esc11&#45;4</text>
<text text-anchor="middle" x="316.5" y="-60.8" font-family="Times New Roman,serif" font-size="14.00">Identificación: Ident Escritorio 11&#45;4</text>
<text text-anchor="middle" x="316.5" y="-45.8" font-family="Times New Roman,serif" font-size="14.00">Encargado: EP1L1&#45;4</text>
<text text-anchor="middle" x="316.5" y="-30.8" font-family="Times New Roman,serif" font-size="14.00">Atendidos: 0</text>
</g>
<!-- R1&#45;&gt;D2 -->
<g id="edge3" class="edge">
<title>R1&#45;&gt;D2</title>
<path fill="none" stroke="black" d="M173.05,-110.73C186.91,-105.5 201.37,-100.05 215.53,-94.71"/>
<polygon fill="black" stroke="black" points="217.16,-97.83 225.28,-91.03 214.69,-91.28 217.16,-97.83"/>
</g>
<!-- R2 -->
<g id="node2" class="node">
<title>R2</title>
<path fill="salmon" stroke="#cd1076" d="M38.5,-297C38.5,-297 134.5,-297 134.5,-297 140.5,-297 146.5,-303 146.5,-309 146.5,-309 146.5,-321 146.5,-321 146.5,-327 140.5,-333 134.5,-333 134.5,-333 38.5,-333 38.5,-333 32.5,-333 26.5,-327 26.5,-321 26.5,-321 26.5,-309 26.5,-309 26.5,-303 32.5,-297 38.5,-297"/>
<text text-anchor="middle" x="86.5" y="-311.3" font-family="Times New Roman,serif" font-size="14.00">Clientes en espera:</text>
</g>
<!-- C0 -->
<g id="node6" class="node">
<title>C0</title>
<polygon fill="salmon" stroke="#cd1076" points="392,-349 241,-349 241,-281 392,-281 392,-349"/>
<text text-anchor="middle" x="316.5" y="-333.8" font-family="Times New Roman,serif" font-size="14.00">Josué</text>
<text text-anchor="middle" x="316.5" y="-318.8" font-family="Times New Roman,serif" font-size="14.00">DPI: 10101010</text>
<text text-anchor="middle" x="316.5" y="-303.8" font-family="Times New Roman,serif" font-size="14.00">Atención propia: 14 min</text>
<text text-anchor="middle" x="316.5" y="-288.8" font-family="Times New Roman,serif" font-size="14.00">Espera media: 0.0 min</text>
</g>
<!-- R2&#45;&gt;C0 -->
<g id="edge4" class="edge">
<title>R2&#45;&gt;C0</title>
<path fill="none" stroke="black" d="M146.51,-315C172.13,-315 202.62,-315 230.6,-315"/>
<polygon fill="black" stroke="black" points="230.78,-318.5 240.78,-315 230.78,-311.5 230.78,-318.5"/>
</g>
<!-- C1 -->
<g id="node7" class="node">
<title>C1</title>
<polygon fill="salmon" stroke="#cd1076" points="611,-349 460,-349 460,-281 611,-281 611,-349"/>
<text text-anchor="middle" x="535.5" y="-333.8" font-family="Times New Roman,serif" font-size="14.00">Antonio</text>
<text text-anchor="middle" x="535.5" y="-318.8" font-family="Times New Roman,serif" font-size="14.00">DPI: 30303030</text>
<text text-anchor="middle" x="535.5" y="-303.8" font-family="Times New Roman,serif" font-size="14.00">Atención propia: 21 min</text>
<text text-anchor="middle" x="535.5" y="-288.8" font-family="Times New Roman,serif" font-size="14.00">Espera media: 7.0 min</text>
</g>
<!-- C0&#45;&gt;C1 -->
<g id="edge5" class="edge">
<title>C0&#45;&gt;C1</title>
<path fill="none" stroke="black" d="M392.18,-315C410.68,-315 430.63,-315 449.58,-315"/>
<polygon fill="black" stroke="black" points="449.68,-318.5 459.68,-315 449.68,-311.5 449.68,-318.5"/>
</g>
<!-- C2 -->
<g id="node8" class="node">
<title>C2</title>
<polygon fill="salmon" stroke="#cd1076" points="800,-349 647,-349 647,-281 800,-281 800,-349"/>
<text text-anchor="middle" x="723.5" y="-333.8" font-family="Times New Roman,serif" font-size="14.00">Maresa</text>
<text text-anchor="middle" x="723.5" y="-318.8" font-family="Times New Roman,serif" font-size="14.00">DPI: 31413141</text>
<text text-anchor="middle" x="723.5" y="-303.8" font-family="Times New Roman,serif" font-size="14.00">Atención propia: 8 min</text>
<text text-anchor="middle" x="723.5" y="-288.8" font-family="Times New Roman,serif" font-size="14.00">Espera media: 11.67 min</text>
</g>
<!-- C1&#45;&gt;C2 -->
<g id="edge6" class="edge">
<title>C1&#45;&gt;C2</title>
<path fill="none" stroke="black" d="M611.08,-315C619.58,-315 628.29,-315 636.92,-315"/>
<polygon fill="black" stroke="black" points="636.99,-318.5 646.99,-315 636.99,-311.5 636.99,-318.5"/>
</g>
</g>
</svg>
