<?xml version="1.0" encoding="UTF-8" standalone="no"?>
<!DOCTYPE svg PUBLIC "-//W3C//DTD SVG 1.1//EN"
 "http://www.w3.org/Graphics/SVG/1.1/DTD/svg11.dtd">
<!-- Generated by graphviz version 2.48.0 (20210717.1556)
 -->
<!-- Title: Plantilla Pages: 1 -->
<svg width="610pt" height="278pt"
 viewBox="0.00 0.00 610.00 277.50" xmlns="http://www.w3.org/2000/svg" xmlns:xlink="http://www.w3.org/1999/xlink">
<g id="graph0" class="graph" transform="scale(1 1) rotate(0) translate(4 273.5)">
<title>Plantilla</title>
<polygon fill="white" stroke="transparent" points="-4,4 -4,-273.5 606,-273.5 606,4 -4,4"/>
<text text-anchor="middle" x="301" y="-7.8" font-family="Times New Roman,serif" font-size="14.00">Estado del punto y escritorios activos del punto.</text>
<!-- R -->
<g id="node1" class="node">
<title>R</title>
<path fill="salmon" stroke="#cd1076" d="M12,-77C12,-77 171,-77 171,-77 177,-77 183,-83 183,-89 183,-89 183,-101 183,-101 183,-107 177,-113 171,-113 171,-113 12,-113 12,-113 6,-113 0,-107 0,-101 0,-101 0,-89 0,-89 0,-83 6,-77 12,-77"/>
<text text-anchor="middle" x="91.5" y="-91.3" font-family="Times New Roman,serif" font-size="14.00">Punto de atencion: NOMBRE</text>
</g>
<!-- esc1 -->
<g id="node3" class="node">
<title>esc1</title>
<polygon fill="salmon" stroke="#cd1076" points="332,-214.5 219,-214.5 219,-131.5 332,-131.5 332,-214.5"/>
<text text-anchor="middle" x="275.5" y="-199.3" font-family="Times New Roman,serif" font-size="14.00">escritorio: uno </text>
<text text-anchor="middle" x="275.5" y="-184.3" font-family="Times New Roman,serif" font-size="14.00"> encargado: abril </text>
<text text-anchor="middle" x="275.5" y="-169.3" font-family="Times New Roman,serif" font-size="14.00"> transacciones: </text>
<text text-anchor="middle" x="275.5" y="-154.3" font-family="Times New Roman,serif" font-size="14.00"> &#45;t1 </text>
<text text-anchor="middle" x="275.5" y="-139.3" font-family="Times New Roman,serif" font-size="14.00"> t2</text>
</g>
<!-- R&#45;&gt;esc1 -->
<g id="edge1" class="edge">
<title>R&#45;&gt;esc1</title>
<path fill="none" stroke="black" d="M134.71,-113.09C156.87,-122.59 184.51,-134.43 209.35,-145.08"/>
<polygon fill="black" stroke="black" points="208.15,-148.37 218.72,-149.09 210.91,-141.94 208.15,-148.37"/>
</g>
<!-- esc2 -->
<g id="node4" class="node">
<title>esc2</title>
<polygon fill="salmon" stroke="#cd1076" points="302.5,-113 248.5,-113 248.5,-77 302.5,-77 302.5,-113"/>
<text text-anchor="middle" x="275.5" y="-91.3" font-family="Times New Roman,serif" font-size="14.00">esc2</text>
</g>
<!-- R&#45;&gt;esc2 -->
<g id="edge2" class="edge">
<title>R&#45;&gt;esc2</title>
<path fill="none" stroke="black" d="M183.23,-95C202.62,-95 222.03,-95 237.93,-95"/>
<polygon fill="black" stroke="black" points="238.33,-98.5 248.33,-95 238.33,-91.5 238.33,-98.5"/>
</g>
<!-- esc3 -->
<g id="node5" class="node">
<title>esc3</title>
<polygon fill="salmon" stroke="#cd1076" points="302.5,-59 248.5,-59 248.5,-23 302.5,-23 302.5,-59"/>
<text text-anchor="middle" x="275.5" y="-37.3" font-family="Times New Roman,serif" font-size="14.00">esc3</text>
</g>
<!-- R&#45;&gt;esc3 -->
<g id="edge3" class="edge">
<title>R&#45;&gt;esc3</title>
<path fill="none" stroke="black" d="M153.36,-76.94C181.57,-68.57 214.14,-58.91 238.39,-51.71"/>
<polygon fill="black" stroke="black" points="239.65,-54.99 248.25,-48.79 237.66,-48.28 239.65,-54.99"/>
</g>
<!-- a -->
<g id="node2" class="node">
<title>a</title>
<path fill="salmon" stroke="#cd1076" d="M43.5,-233C43.5,-233 139.5,-233 139.5,-233 145.5,-233 151.5,-239 151.5,-245 151.5,-245 151.5,-257 151.5,-257 151.5,-263 145.5,-269 139.5,-269 139.5,-269 43.5,-269 43.5,-269 37.5,-269 31.5,-263 31.5,-257 31.5,-257 31.5,-245 31.5,-245 31.5,-239 37.5,-233 43.5,-233"/>
<text text-anchor="middle" x="91.5" y="-247.3" font-family="Times New Roman,serif" font-size="14.00">Clientes en espera:</text>
</g>
<!-- b -->
<g id="node6" class="node">
<title>b</title>
<polygon fill="salmon" stroke="#cd1076" points="302.5,-269 248.5,-269 248.5,-233 302.5,-233 302.5,-269"/>
<text text-anchor="middle" x="275.5" y="-247.3" font-family="Times New Roman,serif" font-size="14.00">b</text>
</g>
<!-- a&#45;&gt;b -->
<g id="edge4" class="edge">
<title>a&#45;&gt;b</title>
<path fill="none" stroke="black" d="M151.59,-251C180.11,-251 213.41,-251 238.15,-251"/>
<polygon fill="black" stroke="black" points="238.2,-254.5 248.2,-251 238.2,-247.5 238.2,-254.5"/>
</g>
<!-- c -->
<g id="node7" class="node">
<title>c</title>
<polygon fill="salmon" stroke="#cd1076" points="422,-269 368,-269 368,-233 422,-233 422,-269"/>
<text text-anchor="middle" x="395" y="-247.3" font-family="Times New Roman,serif" font-size="14.00">c</text>
</g>
<!-- b&#45;&gt;c -->
<g id="edge5" class="edge">
<title>b&#45;&gt;c</title>
<path fill="none" stroke="black" d="M302.58,-251C318.85,-251 340.04,-251 357.91,-251"/>
<polygon fill="black" stroke="black" points="358,-254.5 368,-251 358,-247.5 358,-254.5"/>
</g>
<!-- d -->
<g id="node8" class="node">
<title>d</title>
<polygon fill="salmon" stroke="#cd1076" points="512,-269 458,-269 458,-233 512,-233 512,-269"/>
<text text-anchor="middle" x="485" y="-247.3" font-family="Times New Roman,serif" font-size="14.00">d</text>
</g>
<!-- c&#45;&gt;d -->
<g id="edge6" class="edge">
<title>c&#45;&gt;d</title>
<path fill="none" stroke="black" d="M422.4,-251C430.39,-251 439.31,-251 447.82,-251"/>
<polygon fill="black" stroke="black" points="447.92,-254.5 457.92,-251 447.92,-247.5 447.92,-254.5"/>
</g>
<!-- e -->
<g id="node9" class="node">
<title>e</title>
<polygon fill="salmon" stroke="#cd1076" points="602,-269 548,-269 548,-233 602,-233 602,-269"/>
<text text-anchor="middle" x="575" y="-247.3" font-family="Times New Roman,serif" font-size="14.00">e</text>
</g>
<!-- d&#45;&gt;e -->
<g id="edge7" class="edge">
<title>d&#45;&gt;e</title>
<path fill="none" stroke="black" d="M512.4,-251C520.39,-251 529.31,-251 537.82,-251"/>
<polygon fill="black" stroke="black" points="537.92,-254.5 547.92,-251 537.92,-247.5 537.92,-254.5"/>
</g>
</g>
</svg>
